<?xml version="1.0" encoding="utf-8"?>
<?xml-stylesheet type="text/xsl" href="rss1.xsl"?>
<rss version="2.0" xmlns:atom="http://www.w3.org/2005/Atom" xmlns:content="http://purl.org/rss/1.0/modules/content/" xmlns:dc="http://purl.org/dc/elements/1.1/" xmlns:media="http://search.yahoo.com/mrss/">
<channel>
 <title>Getty</title>
 <link>http://www.gettyimg.com/</link>
 <atom:link href="http://www.gettyimg.com/" rel="self" type="application/rss+xml" />

 
                <item>
                <title><![CDATA[【MASTER &amp; MASTER RIP】MASTER - TWICE I GOT YOU MASTER 1634p H264 AAC2.0]]></title>
                <link><![CDATA[https://sharemania.us/threads/twice-i-got-you-master-1634p-h264-aac2-0.241832/]]></link>
                <description><![CDATA[<article>
<blockquote class="messageText SelectQuoteContainer ugc baseHtml">
<div style="text-align: center"><img src="https://i.imgur.com/E1e2I7U.jpeg" class="bbCodeImage LbImage" alt="[​IMG]" data-url="https://i.imgur.com/E1e2I7U.jpeg" style=""> <br>
<br>
<div class="ToggleTriggerAnchor bbCodeSpoilerContainer">
<button type="button" class="button bbCodeSpoilerButton ToggleTrigger Tooltip JsOnly" data-target="> .SpoilerTarget"><span>Spoiler: <span class="SpoilerTitle">Mediainfo</span></span></button>
<div class="SpoilerTarget bbCodeSpoilerText"><b>General</b><br>
Complete name : TWICE I GOT YOU MASTER 1634p H264 AAC2.0.mp4<br>
Format : MPEG-4<br>
Format profile : QuickTime<br>
Codec ID : qt 0000.02 (qt )<br>
File size : 2.02 GiB<br>
Duration : 3 min 52 s<br>
Overall bit rate : 74.6 Mb/s<br>
Frame rate : 24.000 FPS<br>
Encoded date : 2024-01-29 08:31:04 UTC<br>
Tagged date : 2024-01-29 08:31:04 UTC<br>
Writing application : Blackmagic Design DaVinci Resolve Studio<br>
<br>
<b>Video</b><br>
ID : 1<br>
Format : AVC<br>
Format/Info : Advanced Video Codec<br>
Format profile : High@L5.1<br>
Format settings : CABAC / 2 Ref Frames<br>
Format settings, CABAC : Yes<br>
Format settings, Reference frames : 2 frames<br>
Codec ID : avc1<br>
Codec ID/Info : Advanced Video Coding<br>
Duration : 3 min 52 s<br>
Bit rate : 74.3 Mb/s<br>
Width : 3 840 pixels<br>
Height : 1 634 pixels<br>
Display aspect ratio : 2.35:1<br>
Frame rate mode : Constant<br>
Frame rate : 24.000 FPS<br>
Color space : YUV<br>
Chroma subsampling : 4:2:0<br>
Bit depth : 8 bits<br>
Scan type : Progressive<br>
Bits/(Pixel*Frame) : 0.493<br>
Stream size : 2.01 GiB (100%)<br>
Encoded date : 2024-01-29 08:31:04 UTC<br>
Tagged date : 2024-01-29 08:31:04 UTC<br>
Color range : Limited<br>
Color primaries : BT.709<br>
Transfer characteristics : BT.709<br>
Matrix coefficients : BT.709<br>
Codec configuration box : avcC<br>
<br>
<b>Audio</b><br>
ID : 2<br>
Format : AAC LC<br>
Format/Info : Advanced Audio Codec Low Complexity<br>
Codec ID : mp4a-40-2<br>
Duration : 3 min 52 s<br>
Bit rate mode : Constant<br>
Bit rate : 320 kb/s<br>
Channel(s) : 2 channels<br>
Channel layout : L R<br>
Sampling rate : 48.0 kHz<br>
Frame rate : 46.875 FPS (1024 SPF)<br>
Compression mode : Lossy<br>
Stream size : 8.85 MiB (0%)<br>
Default : Yes<br>
Alternate group : 1<br>
Encoded date : 2024-01-29 08:31:04 UTC<br>
Tagged date : 2024-01-29 08:31:04 UTC<br>
<br>
<b>Other</b><br>
ID : 3<br>
Type : Time code<br>
Format : QuickTime TC<br>
Duration : 3 min 52 s<br>
Frame rate : 24.000 FPS<br>
Time code of first frame : 01:00:00:00<br>
Time code of last frame : 01:03:51:23<br>
Time code, stripped : Yes<br>
Language : English<br>
Encoded date : 2024-01-29 08:31:04 UTC<br>
Tagged date : 2024-01-29 08:31:04 UTC</div>
</div><br>
<div class="bbCodeBlock bbCodeVfcHH HiddenContent">
<div class="attribution type">Hidden Content:</div>
<blockquote>You must reply before you can see the hidden data contained here.</blockquote>
</div></div>
<div class="messageTextEndMarker">&nbsp;</div>
</blockquote>
</article>]]></description>
                <author><![CDATA[von_3649]]></author>
                </item>

                </channel></rss>